<?xml version="1.0" encoding="utf-8"?>
<!-- Generator: Adobe Illustrator 15.1.0, SVG Export Plug-In . SVG Version: 6.00 Build 0)  -->
<!DOCTYPE svg PUBLIC "-//W3C//DTD SVG 1.1//EN" "http://www.w3.org/Graphics/SVG/1.1/DTD/svg11.dtd">
<svg version="1.1" id="Layer_1" xmlns="http://www.w3.org/2000/svg" xmlns:xlink="http://www.w3.org/1999/xlink" x="0px" y="0px"
	 width="90.667px" height="54px" viewBox="0 0 90.667 54" enable-background="new 0 0 90.667 54" xml:space="preserve">
<polygon display="none" fill-rule="evenodd" clip-rule="evenodd" fill="#FFFFFF" points="-51,-69.936 141.756,-69.936 
	141.756,122.82 -51,122.82 -51,-69.936 "/>
<g>
	<path fill-rule="evenodd" clip-rule="evenodd" fill="#FCB131" d="M45.357,46.501c4.61,4.25,10.803,6.826,17.537,6.826
		c14.462,0,26.168-11.797,26.168-26.305c0-14.553-11.706-26.35-26.168-26.35c-6.734,0-12.927,2.576-17.537,6.825
		c-5.288,4.836-8.632,11.796-8.632,19.524S40.07,41.712,45.357,46.501L45.357,46.501z"/>
	<path fill-rule="evenodd" clip-rule="evenodd" fill="#FCB131" d="M85.582,41.665c0-0.451,0.361-0.812,0.813-0.812
		c0.497,0,0.858,0.361,0.858,0.812c0,0.498-0.361,0.859-0.858,0.859C85.943,42.524,85.582,42.163,85.582,41.665L85.582,41.665z
		 M86.396,42.345c0.361,0,0.678-0.318,0.678-0.68s-0.316-0.633-0.678-0.633c-0.316,0-0.633,0.271-0.633,0.633
		S86.079,42.345,86.396,42.345L86.396,42.345z M86.306,42.073h-0.181v-0.77h0.315c0.046,0,0.136,0,0.182,0.047
		c0.09,0.045,0.09,0.09,0.09,0.18s-0.045,0.182-0.136,0.182l0.181,0.361h-0.226l-0.091-0.316h-0.135V42.073V41.62h0.09
		c0.045,0,0.091,0,0.091,0c0.045,0,0.045-0.045,0.045-0.09s0-0.045-0.045-0.09c0,0-0.046,0-0.091,0h-0.09v0.18V42.073L86.306,42.073
		z"/>
	<path fill-rule="evenodd" clip-rule="evenodd" fill="#ED1C2E" d="M53.81,24.221c-0.091-0.949-0.271-1.854-0.452-2.803H37.358
		c0.181-0.949,0.452-1.853,0.723-2.757H52.59c-0.317-0.949-0.679-1.898-1.086-2.802H39.211c0.452-0.949,0.949-1.898,1.492-2.803
		h9.265c-0.588-0.949-1.266-1.898-1.988-2.757h-5.289c0.813-0.994,1.718-1.943,2.667-2.802c-4.655-4.204-10.802-6.825-17.581-6.825
		c-14.417,0-26.168,11.797-26.168,26.35c0,14.508,11.751,26.305,26.168,26.305c6.779,0,12.926-2.576,17.581-6.826l0,0l0,0
		c0.949-0.857,1.809-1.762,2.622-2.756h-5.289c-0.723-0.904-1.356-1.809-1.988-2.803h9.265c0.587-0.904,1.085-1.807,1.536-2.803
		H39.211c-0.407-0.902-0.813-1.807-1.13-2.756H52.59c0.316-0.904,0.541-1.854,0.768-2.803c0.181-0.904,0.361-1.853,0.452-2.801
		c0.091-0.904,0.136-1.809,0.136-2.758S53.9,25.124,53.81,24.221L53.81,24.221z"/>
	<path fill-rule="evenodd" clip-rule="evenodd" fill="#FFFFFF" d="M85.582,33.124c0-0.496,0.361-0.859,0.813-0.859
		c0.497,0,0.858,0.363,0.858,0.859c0,0.451-0.361,0.859-0.858,0.859C85.943,33.983,85.582,33.575,85.582,33.124L85.582,33.124z
		 M86.396,33.757c0.361,0,0.678-0.271,0.678-0.633s-0.316-0.633-0.678-0.633c-0.316,0-0.633,0.271-0.633,0.633
		S86.079,33.757,86.396,33.757L86.396,33.757z M86.306,33.485h-0.181v-0.723h0.315c0.046,0,0.136,0,0.182,0
		c0.09,0.045,0.09,0.135,0.09,0.227c0,0.045-0.045,0.135-0.136,0.18l0.181,0.316h-0.226l-0.091-0.271h-0.135V33.485v-0.406h0.09
		c0.045,0,0.091,0,0.091-0.045c0.045,0,0.045-0.045,0.045-0.092c0,0,0-0.045-0.045-0.045c0-0.045-0.046,0-0.091,0h-0.09v0.182
		V33.485L86.306,33.485z"/>
	<path fill-rule="evenodd" clip-rule="evenodd" fill="#003473" d="M36.454,34.616c-0.859,0.225-1.491,0.361-2.124,0.361
		c-1.356,0-2.17-0.859-2.17-2.396c0-0.316,0.045-0.633,0.091-0.994l0.181-1.039l0.136-0.858l1.22-7.412h2.712l-0.316,1.627H37.9
		l-0.407,2.712h-1.717l-0.723,4.428c-0.045,0.227-0.045,0.363-0.045,0.453c0,0.588,0.271,0.812,0.949,0.812
		c0.316,0,0.587-0.045,0.858-0.09L36.454,34.616L36.454,34.616z"/>
	<path fill-rule="evenodd" clip-rule="evenodd" fill="#003473" d="M45.222,34.524c-0.994,0.271-1.898,0.406-2.893,0.406
		c-3.073,0-4.836-1.627-4.836-4.835c0-3.751,2.079-6.463,4.971-6.463c2.305,0,3.797,1.537,3.797,3.932
		c0,0.813-0.09,1.582-0.316,2.667h-5.649c-0.045,0.182-0.045,0.271-0.045,0.361c0,1.266,0.859,1.898,2.486,1.898
		c1.04,0,1.943-0.227,2.938-0.678L45.222,34.524L45.222,34.524z M43.55,28.062c0-0.227,0-0.407,0-0.543
		c0-0.903-0.497-1.401-1.356-1.401c-0.904,0-1.537,0.679-1.808,1.944H43.55L43.55,28.062z"/>
	<polygon fill-rule="evenodd" clip-rule="evenodd" fill="#003473" points="14.76,34.751 11.958,34.751 13.585,24.491 9.924,34.751 
		7.98,34.751 7.754,24.537 6.037,34.751 3.28,34.751 5.495,21.418 9.607,21.418 9.698,29.644 12.455,21.418 16.974,21.418 
		14.76,34.751 	"/>
	<path fill-rule="evenodd" clip-rule="evenodd" fill="#003473" d="M21.584,29.915c-0.271-0.045-0.361-0.045-0.542-0.045
		c-1.627,0-2.441,0.633-2.441,1.627c0,0.678,0.407,1.131,1.04,1.131C20.997,32.628,21.54,31.497,21.584,29.915L21.584,29.915z
		 M23.844,34.751h-2.44l0.045-1.129c-0.633,0.857-1.492,1.309-2.983,1.309c-1.356,0-2.531-1.219-2.531-2.982
		c0-0.496,0.09-0.947,0.226-1.4c0.452-1.672,2.125-2.712,4.701-2.757c0.316,0,0.813,0,1.266,0.045c0.09-0.361,0.09-0.497,0.09-0.724
		c0-0.723-0.587-0.948-1.898-0.948c-0.813,0-1.717,0.136-2.35,0.361l-0.407,0.091l-0.181,0.045l0.406-2.44
		c1.311-0.407,2.26-0.588,3.3-0.588c2.44,0,3.751,1.13,3.751,3.209c0,0.542,0.045,0.949-0.135,2.124l-0.633,3.887l-0.09,0.678
		l-0.045,0.543l-0.045,0.361L23.844,34.751L23.844,34.751z"/>
	<path fill-rule="evenodd" clip-rule="evenodd" fill="#003473" d="M58.871,23.994c0.813,0,1.537,0.227,2.531,0.724l0.497-2.893
		c-0.271-0.136-0.361-0.136-0.724-0.271l-1.13-0.316c-0.361-0.09-0.813-0.136-1.311-0.136c-1.4,0-2.214,0.046-3.073,0.543
		c-0.451,0.316-1.039,0.723-1.672,1.446L53.629,23l-2.893,2.034l0.135-1.13h-2.982l-1.763,10.847h2.848l1.039-5.831
		c0,0,0.407-0.813,0.588-1.084c0.542-0.678,0.994-0.678,1.582-0.678c0.09,0,0.181,0,0.226,0c-0.091,0.633-0.136,1.311-0.136,2.079
		c0,3.525,1.989,5.74,5.062,5.74c0.769,0,1.446-0.092,2.485-0.361l0.497-3.074c-0.903,0.496-1.717,0.723-2.396,0.723
		c-1.672,0-2.666-1.264-2.666-3.254C55.256,26.073,56.747,23.994,58.871,23.994L58.871,23.994z"/>
	<path fill-rule="evenodd" clip-rule="evenodd" fill="#003473" d="M82.871,21.418l-0.633,3.797c-0.679-1.04-1.492-1.537-2.576-1.537
		c-1.492,0-2.894,0.859-3.752,2.486v-0.046l-1.808-1.084l0.181-1.13h-3.027l-1.718,10.847h2.802l0.949-5.831
		c0,0,0.723-0.813,0.904-1.084c0.451-0.543,0.903-0.633,1.265-0.678c-0.316,0.904-0.497,1.988-0.497,3.208
		c0,2.713,1.401,4.52,3.48,4.52c1.04,0,1.854-0.361,2.621-1.221l-0.135,1.086h2.666l2.169-13.333H82.871L82.871,21.418z
		 M79.391,32.175c-0.949,0-1.446-0.723-1.446-2.124c0-2.125,0.903-3.661,2.215-3.661c0.994,0,1.491,0.769,1.491,2.124
		C81.65,30.684,80.746,32.175,79.391,32.175L79.391,32.175z"/>
	<path fill-rule="evenodd" clip-rule="evenodd" fill="#003473" d="M66.329,29.915c-0.271-0.045-0.362-0.045-0.543-0.045
		c-1.627,0-2.44,0.633-2.44,1.627c0,0.678,0.407,1.131,1.04,1.131C65.741,32.628,66.283,31.497,66.329,29.915L66.329,29.915z
		 M68.589,34.751h-2.486l0.091-1.129c-0.633,0.857-1.491,1.309-2.983,1.309c-1.4,0-2.621-1.174-2.621-2.982
		c0-2.576,1.943-4.157,5.017-4.157c0.316,0,0.813,0,1.221,0.045c0.09-0.361,0.136-0.497,0.136-0.724
		c0-0.723-0.588-0.948-1.943-0.948c-0.769,0-1.718,0.136-2.351,0.361l-0.361,0.091l-0.181,0.045l0.406-2.44
		c1.311-0.407,2.26-0.588,3.3-0.588c2.44,0,3.706,1.13,3.706,3.209c0,0.542,0.09,0.949-0.136,2.124l-0.588,3.887l-0.091,0.678
		l-0.09,0.543l-0.045,0.361V34.751L68.589,34.751z"/>
	<path fill-rule="evenodd" clip-rule="evenodd" fill="#003473" d="M29.765,26.209c0.542,0,1.311,0.045,2.124,0.181l0.407-2.531
		c-0.813-0.09-1.898-0.226-2.531-0.226c-3.164,0-4.204,1.718-4.204,3.706c0,1.311,0.588,2.26,2.125,2.983
		c1.13,0.542,1.311,0.632,1.311,1.13c0,0.678-0.587,1.084-1.672,1.084c-0.858,0-1.672-0.135-2.576-0.451l-0.316,2.484l0.045,0.047
		l0.542,0.09c0.181,0.045,0.407,0.09,0.723,0.135c0.678,0.045,1.266,0.09,1.627,0.09c3.164,0,4.475-1.219,4.475-3.615
		c0-1.491-0.723-2.396-2.125-3.027c-1.22-0.543-1.356-0.633-1.356-1.13S28.906,26.209,29.765,26.209L29.765,26.209z"/>
	<path fill-rule="evenodd" clip-rule="evenodd" fill="#FFFFFF" d="M62.668,20.966l-0.497,2.893
		c-0.995-0.497-1.718-0.723-2.531-0.723c-2.124,0-3.615,2.079-3.615,5.017c0,2.034,0.994,3.255,2.666,3.255
		c0.678,0,1.491-0.227,2.396-0.679l-0.497,3.028c-1.04,0.271-1.718,0.406-2.485,0.406c-3.073,0-4.973-2.215-4.973-5.785
		c0-4.745,2.622-8.09,6.373-8.09c0.497,0,0.949,0.046,1.312,0.136l1.13,0.271C62.307,20.831,62.396,20.876,62.668,20.966
		L62.668,20.966z"/>
	<path fill-rule="evenodd" clip-rule="evenodd" fill="#FFFFFF" d="M53.538,22.955c-0.09,0-0.181,0-0.271,0
		c-0.95,0-1.492,0.452-2.351,1.763l0.271-1.673h-2.575L46.85,33.892h2.847c1.04-6.643,1.311-7.773,2.667-7.773
		c0.09,0,0.09,0,0.181,0c0.271-1.311,0.633-2.26,1.085-3.118L53.538,22.955L53.538,22.955z"/>
	<path fill-rule="evenodd" clip-rule="evenodd" fill="#FFFFFF" d="M37.177,33.757c-0.769,0.271-1.401,0.361-2.034,0.361
		c-1.446,0-2.26-0.814-2.26-2.395c0-0.271,0.045-0.635,0.09-0.949l0.181-1.085l0.135-0.859l1.221-7.412h2.802l-0.316,1.627h1.446
		l-0.361,2.667h-1.446l-0.768,4.52c-0.045,0.182-0.045,0.316-0.045,0.452c0,0.542,0.271,0.769,0.949,0.769
		c0.316,0,0.588,0,0.769-0.09L37.177,33.757L37.177,33.757z"/>
	<path fill-rule="evenodd" clip-rule="evenodd" fill="#FFFFFF" d="M26.285,26.48c0,1.355,0.632,2.305,2.124,3.028
		c1.175,0.542,1.356,0.723,1.356,1.175c0,0.679-0.497,0.993-1.627,0.993c-0.858,0-1.627-0.135-2.531-0.406L25.2,33.757l0.135,0.045
		l0.498,0.09c0.181,0.045,0.407,0.092,0.769,0.092c0.632,0.09,1.175,0.09,1.536,0.09c2.983,0,4.384-1.131,4.384-3.615
		c0-1.492-0.587-2.352-1.989-3.028c-1.22-0.543-1.356-0.679-1.356-1.176c0-0.587,0.498-0.858,1.401-0.858
		c0.542,0,1.311,0.045,2.034,0.136l0.407-2.486c-0.723-0.136-1.853-0.226-2.486-0.226C27.37,22.819,26.24,24.491,26.285,26.48
		L26.285,26.48z"/>
	<path fill-rule="evenodd" clip-rule="evenodd" fill="#FFFFFF" d="M84.316,33.892H81.65l0.136-1.039
		c-0.769,0.812-1.582,1.176-2.621,1.176c-2.08,0-3.436-1.764-3.436-4.475c0-3.616,2.124-6.689,4.61-6.689
		c1.13,0,1.943,0.497,2.712,1.492l0.633-3.797h2.802L84.316,33.892L84.316,33.892z M80.159,31.362c1.311,0,2.214-1.538,2.214-3.662
		c0-1.4-0.497-2.124-1.491-2.124c-1.266,0-2.215,1.492-2.215,3.615C78.667,30.639,79.165,31.362,80.159,31.362L80.159,31.362z"/>
	<path fill-rule="evenodd" clip-rule="evenodd" fill="#FFFFFF" d="M45.855,33.665c-0.995,0.318-1.898,0.453-2.938,0.453
		c-3.164,0-4.791-1.672-4.791-4.881c0-3.706,2.08-6.463,4.927-6.463c2.35,0,3.842,1.536,3.842,3.932
		c0,0.813-0.091,1.582-0.361,2.713h-5.605c-0.045,0.135-0.045,0.225-0.045,0.314c0,1.268,0.859,1.898,2.486,1.898
		c1.04,0,1.943-0.18,2.938-0.678L45.855,33.665L45.855,33.665z M44.273,27.203c0-0.226,0-0.406,0-0.542
		c0-0.904-0.497-1.401-1.356-1.401c-0.904,0-1.537,0.678-1.808,1.943H44.273L44.273,27.203z"/>
	<polygon fill-rule="evenodd" clip-rule="evenodd" fill="#FFFFFF" points="15.483,33.892 12.681,33.892 14.308,23.633 
		10.647,33.892 8.704,33.892 8.478,23.723 6.76,33.892 4.139,33.892 6.354,20.56 10.421,20.56 10.557,28.83 13.268,20.56 
		17.698,20.56 15.483,33.892 	"/>
	<path fill-rule="evenodd" clip-rule="evenodd" fill="#FFFFFF" d="M22.488,29.057c-0.271,0-0.407-0.046-0.632-0.046
		c-1.582,0-2.396,0.588-2.396,1.673c0,0.679,0.361,1.085,0.994,1.085C21.63,31.769,22.443,30.684,22.488,29.057L22.488,29.057z
		 M24.567,33.892h-2.35l0.045-1.129c-0.723,0.902-1.673,1.311-2.983,1.311c-1.537,0-2.576-1.176-2.576-2.938
		c0-2.667,1.808-4.204,4.971-4.204c0.316,0,0.723,0.046,1.175,0.091c0.09-0.361,0.09-0.497,0.09-0.678
		c0-0.724-0.497-0.994-1.808-0.994c-0.813,0-1.717,0.09-2.35,0.271l-0.407,0.136l-0.271,0.046l0.407-2.441
		c1.401-0.406,2.35-0.542,3.39-0.542c2.44,0,3.751,1.085,3.751,3.164c0,0.542-0.045,0.948-0.226,2.169l-0.633,3.843l-0.09,0.676
		l-0.045,0.543l-0.045,0.408L24.567,33.892L24.567,33.892z"/>
	<path fill-rule="evenodd" clip-rule="evenodd" fill="#FFFFFF" d="M67.232,29.057c-0.316,0-0.452-0.046-0.633-0.046
		c-1.627,0-2.44,0.588-2.44,1.673c0,0.679,0.407,1.085,1.04,1.085C66.329,31.769,67.188,30.684,67.232,29.057L67.232,29.057z
		 M69.312,33.892h-2.35l0.045-1.129c-0.724,0.902-1.672,1.311-2.983,1.311c-1.536,0-2.575-1.176-2.575-2.938
		c0-2.667,1.808-4.204,4.971-4.204c0.316,0,0.724,0.046,1.13,0.091c0.091-0.361,0.136-0.497,0.136-0.678
		c0-0.724-0.497-0.994-1.808-0.994c-0.813,0-1.763,0.09-2.396,0.271l-0.361,0.136l-0.271,0.046l0.407-2.441
		c1.4-0.406,2.35-0.542,3.39-0.542c2.44,0,3.706,1.085,3.706,3.164c0,0.542,0,0.948-0.227,2.169l-0.587,3.843l-0.091,0.676
		l-0.091,0.543l-0.045,0.408V33.892L69.312,33.892z"/>
	<path fill-rule="evenodd" clip-rule="evenodd" fill="#FFFFFF" d="M76.904,22.955c-0.09,0-0.181,0-0.271,0
		c-0.949,0-1.492,0.452-2.351,1.763l0.271-1.673h-2.576l-1.718,10.847h2.803c1.039-6.643,1.311-7.773,2.666-7.773
		c0.091,0,0.091,0,0.181,0c0.271-1.311,0.633-2.26,1.085-3.118L76.904,22.955L76.904,22.955z"/>
</g>
</svg>
