<?xml version="1.0" encoding="utf-8"?>
<!-- Generator: Adobe Illustrator 15.1.0, SVG Export Plug-In . SVG Version: 6.00 Build 0)  -->
<!DOCTYPE svg PUBLIC "-//W3C//DTD SVG 1.1//EN" "http://www.w3.org/Graphics/SVG/1.1/DTD/svg11.dtd">
<svg version="1.1"
	 id="svg2" xmlns:dc="http://purl.org/dc/elements/1.1/" xmlns:svg="http://www.w3.org/2000/svg" xmlns:rdf="http://www.w3.org/1999/02/22-rdf-syntax-ns#" xmlns:cc="http://creativecommons.org/ns#"
	 xmlns="http://www.w3.org/2000/svg" xmlns:xlink="http://www.w3.org/1999/xlink" x="0px" y="0px" width="219.333px" height="54px"
	 viewBox="41.167 12.942 219.333 54" enable-background="new 41.167 12.942 219.333 54" xml:space="preserve">
<g id="layer1" transform="translate(-428.71429,-460.51587)">
	<g id="g2993" transform="matrix(1.3703704,0,0,-1.3703704,430.71429,538.48235)">
		<g id="g2995" transform="translate(165.274,21.91)">
			<path id="path2997" fill="#336699" d="M-16.205,1.652c-0.529-0.334-1.088-0.619-1.674-0.862
				c-0.787-0.318-1.534-0.484-2.224-0.484c-1.06,0-1.875,0.15-2.425,0.47c-0.552,0.304-0.841,0.832-0.832,1.589
				c0,0.873,0.202,1.551,0.619,2.082c0.42,0.511,1.045,0.923,1.819,1.229c0.77,0.261,1.717,0.476,2.811,0.63
				c0.972,0.123,2.895,0.344,3.141,0.346c0.246,0.002,0.41,0.138,0.3-0.518c-0.049-0.285-0.604-2.563-0.858-3.599
				C-15.602,2.225-16.016,1.773-16.205,1.652z M-8.66,17.668c-1.619,0.903-4.152,1.36-7.618,1.36c-1.713,0-3.436-0.138-5.164-0.406
				c-1.268-0.194-1.4-0.226-2.187-0.397c-1.621-0.353-1.871-1.977-1.871-1.977l-0.521-2.141c-0.295-1.369,0.485-1.313,0.832-1.207
				c0.708,0.214,1.092,0.426,2.536,0.753c1.381,0.313,2.839,0.548,4.003,0.538c1.707,0,3.004-0.187,3.867-0.547
				c0.863-0.377,1.291-1.018,1.291-1.935c0.003-0.218,0.009-0.424-0.07-0.604c-0.071-0.168-0.207-0.33-0.615-0.385
				c-2.436-0.145-4.185-0.367-6.29-0.674c-2.078-0.293-3.895-0.794-5.415-1.488c-1.62-0.718-2.832-1.68-3.667-2.898
				c-0.813-1.224-1.222-2.707-1.224-4.452c0-1.65,0.593-2.996,1.741-4.041c1.16-1.031,2.67-1.541,4.497-1.541
				c1.142,0.008,2.035,0.09,2.676,0.25c0.634,0.16,1.325,0.387,2.055,0.703c0.545,0.229,1.135,0.558,1.756,0.972
				c0.622,0.415,1.053,0.71,1.606,1.072l0.02-0.035l-0.155-0.686c-0.001-0.006-0.01-0.009-0.01-0.016l0.005-0.013
				c-0.177-0.827,0.319-1.515,1.138-1.596l0.01-0.015h0.072l0.004-0.004c0.544,0,2.409,0.001,3.282,0.004h0.609
				c0.04,0,0.044,0.012,0.06,0.022c0.836,0.102,1.638,0.783,1.826,1.601l3.114,13.441c0.072,0.316,0.128,0.681,0.162,1.102
				c0.039,0.424,0.085,0.774,0.071,1.026C-6.228,15.357-7.045,16.764-8.66,17.668"/>
		</g>
		<g id="g2999">
			<g>
				<defs>
					<rect id="SVGID_1_" x="1.875" y="0.54" width="212.25" height="54.414"/>
				</defs>
				<clipPath id="SVGID_2_">
					<use xlink:href="#SVGID_1_"  overflow="visible"/>
				</clipPath>
				<g id="g3001" clip-path="url(#SVGID_2_)">
					<g id="g3007" transform="translate(101.082,45.728)">
						<path id="path3009" fill="#1C3664" d="M1.957-5.088c-0.914,0-2.112-0.739-2.679-1.633c0,0-6.111-10.476-6.711-11.523
							c-0.326-0.563-0.657-0.206-0.712,0.004c-0.044,0.254-1.894,11.45-1.894,11.45c-0.208,0.901-1.149,1.675-2.327,1.671
							l-3.81-0.006c-0.919,0-1.492-0.736-1.287-1.625c0,0,2.913-16.509,3.48-20.392c0.283-2.148-0.03-2.528-0.03-2.528l-3.776-6.584
							c-0.553-0.893-0.25-1.624,0.664-1.624l4.416,0.004c0.914,0,2.125,0.728,2.669,1.622L6.949-7.521c0,0,1.624,2.454,0.126,2.433
							C6.053-5.102,1.957-5.088,1.957-5.088"/>
					</g>
					<g id="g3011" transform="translate(39.137,49.474)">
						<path id="path3013" fill="#1C3664" d="M19.484-6.147c-0.53,1.034-1.324,1.874-2.338,2.507
							c-1.052,0.649-2.275,1.096-3.702,1.366c-1.435,0.258-3.111,0.384-5.033,0.401l-8.901-0.007
							C-1.416-1.89-2.322-2.616-2.535-3.505L-8.538-29.6c-0.207-0.892,0.371-1.63,1.293-1.63h4.264c0.922,0,1.836,0.718,2.043,1.63
							l1.469,6.332c0.197,0.886,1.108,1.618,2.032,1.618h1.219c5.215,0.005,9.26,1.072,12.167,3.208
							c2.903,2.131,4.355,4.956,4.348,8.45C20.304-8.457,20.038-7.173,19.484-6.147 M10.276-14.673
							c-1.286-0.94-3.068-1.411-5.381-1.411H3.85c-0.921,0-1.503,0.73-1.3,1.628l1.283,5.531c0.196,0.891,1.115,1.63,2.036,1.622
							l1.396,0.009c1.63,0,2.869-0.279,3.705-0.834c0.824-0.54,1.243-1.392,1.228-2.539C12.223-12.394,11.569-13.73,10.276-14.673"
							/>
					</g>
				</g>
			</g>
		</g>
		<g id="g3015" transform="translate(147.108,49.341)">
			<path id="path3017" fill="#336699" d="M-11.065-6.11c-0.531,1.034-1.334,1.867-2.348,2.515c-1.04,0.646-2.276,1.098-3.709,1.361
				c-1.415,0.248-3.098,0.39-5.015,0.394l-8.921-0.005c-0.919-0.016-1.82-0.737-2.032-1.626l-5.998-26.102
				c-0.218-0.887,0.378-1.627,1.281-1.622l4.281,0.008c0.908-0.008,1.833,0.727,2.047,1.614l1.447,6.334
				c0.203,0.888,1.126,1.631,2.049,1.618h1.217c5.221,0,9.269,1.073,12.169,3.208c2.892,2.146,4.347,4.962,4.347,8.463
				C-10.261-8.42-10.522-7.131-11.065-6.11 M-20.27-14.647c-1.277-0.929-3.071-1.395-5.379-1.395h-1.06
				c-0.918-0.011-1.511,0.732-1.293,1.621l1.278,5.54c0.191,0.876,1.122,1.622,2.027,1.615l1.402,0.007
				c1.636-0.007,2.86-0.281,3.706-0.825c0.831-0.551,1.234-1.405,1.24-2.543C-18.344-12.362-18.986-13.696-20.27-14.647"/>
		</g>
		<g id="g3019" transform="translate(57.28,21.938)">
			<path id="path3021" fill="#1C3664" d="M14.35,1.643c-0.529-0.334-1.087-0.617-1.673-0.861c-0.787-0.316-1.537-0.485-2.226-0.485
				c-1.057,0-1.874,0.151-2.425,0.47C7.475,1.073,7.185,1.601,7.194,2.359c0,0.871,0.204,1.551,0.62,2.081
				c0.421,0.512,1.043,0.924,1.817,1.231c0.772,0.263,1.722,0.475,2.812,0.629c0.972,0.123,2.897,0.343,3.142,0.347
				c0.244,0.001,0.408,0.138,0.299-0.518c-0.048-0.284-0.603-2.565-0.858-3.6C14.95,2.216,14.537,1.765,14.35,1.643z M21.896,17.661
				c-1.619,0.904-4.151,1.36-7.617,1.36c-1.715,0-3.436-0.136-5.165-0.405c-1.271-0.193-1.398-0.226-2.187-0.397
				c-1.622-0.354-1.871-1.976-1.871-1.976l-0.521-2.143c-0.295-1.368,0.486-1.312,0.833-1.206c0.706,0.213,1.092,0.425,2.536,0.754
				c1.378,0.312,2.839,0.546,4.001,0.538c1.708,0,3.005-0.186,3.867-0.546c0.864-0.377,1.289-1.019,1.289-1.935
				c0.006-0.218,0.01-0.425-0.067-0.603c-0.072-0.17-0.21-0.33-0.618-0.385c-2.433-0.147-4.181-0.368-6.289-0.676
				C8.009,9.747,6.193,9.245,4.673,8.552C3.053,7.834,1.842,6.87,1.008,5.653C0.192,4.429-0.216,2.948-0.217,1.201
				c0-1.65,0.594-2.996,1.74-4.04C2.684-3.87,4.193-4.382,6.02-4.382c1.142,0.008,2.035,0.092,2.678,0.25
				c0.633,0.162,1.325,0.388,2.052,0.704c0.548,0.227,1.135,0.559,1.758,0.972c0.621,0.414,1.054,0.709,1.609,1.071l0.017-0.034
				l-0.156-0.686c-0.001-0.006-0.01-0.011-0.01-0.019l0.006-0.011c-0.178-0.829,0.318-1.516,1.137-1.596l0.01-0.016h0.072
				l0.002-0.005c0.545,0,2.412,0.002,3.281,0.005h0.61c0.041,0,0.047,0.013,0.06,0.022c0.838,0.105,1.637,0.785,1.828,1.6
				l3.115,13.443c0.07,0.315,0.128,0.68,0.159,1.1c0.042,0.427,0.087,0.775,0.075,1.026C24.329,15.35,23.51,16.757,21.896,17.661"/>
		</g>
		<g id="g3023" transform="translate(196.3,54.997)">
			<path id="path3025" fill="#336699" d="M-24.983-7.71h-3.816c-0.001,0-0.004,0-0.005,0l-0.002,0c-0.874,0-1.76-0.669-2.007-1.52
				c-0.01-0.034-0.028-0.067-0.035-0.103c0,0-0.091-0.415-0.249-1.133l-5.241-23.756c-0.122-0.537-0.202-0.887-0.227-0.978
				l0.01-0.013c-0.181-0.831,0.318-1.518,1.137-1.595l0.011-0.016h3.961c0.867,0,1.748,0.663,2.003,1.504
				c0.012,0.041,0.032,0.078,0.041,0.12l5.717,25.868l-0.009,0.003C-23.5-8.444-24.069-7.71-24.983-7.71"/>
		</g>
		<g id="g3027" transform="translate(206.375,47.652)">
			<path id="path3029" fill="#336699" d="M-27.833-5.632c-0.13-0.034-0.272-0.063-0.428-0.085c-0.155-0.021-0.294-0.034-0.414-0.034
				c-0.426,0-0.747,0.115-0.968,0.342c-0.221,0.228-0.33,0.594-0.33,1.096v2.207h-0.472v0.588h0.472v1.192h0.698v-1.192h1.442
				v-0.588h-1.442v-1.891c0-0.218,0.006-0.388,0.014-0.511c0.011-0.124,0.046-0.238,0.105-0.344c0.053-0.1,0.128-0.171,0.224-0.217
				c0.096-0.046,0.242-0.069,0.438-0.069c0.113,0,0.233,0.017,0.358,0.051c0.123,0.032,0.212,0.061,0.267,0.083h0.036V-5.632"/>
		</g>
		<g id="g3031" transform="translate(216,47.601)">
			<path id="path3033" fill="#336699" d="M-30.557-5.617h-0.698v2.363c0,0.178-0.009,0.35-0.025,0.516
				c-0.016,0.166-0.052,0.298-0.103,0.398c-0.058,0.106-0.138,0.187-0.245,0.241c-0.107,0.055-0.259,0.082-0.46,0.082
				c-0.197,0-0.391-0.048-0.587-0.147c-0.196-0.097-0.391-0.222-0.587-0.373c0.007-0.057,0.013-0.123,0.018-0.2
				c0.006-0.075,0.008-0.15,0.008-0.224v-2.657h-0.698v2.363c0,0.183-0.009,0.357-0.025,0.522c-0.016,0.165-0.051,0.296-0.102,0.396
				c-0.058,0.107-0.14,0.186-0.247,0.24c-0.106,0.053-0.26,0.079-0.46,0.079c-0.191,0-0.381-0.047-0.574-0.141
				c-0.192-0.094-0.383-0.213-0.574-0.36v-3.099h-0.699v4.15h0.699v-0.461c0.219,0.181,0.435,0.322,0.652,0.424
				c0.218,0.101,0.447,0.152,0.693,0.152c0.282,0,0.522-0.06,0.72-0.178c0.196-0.12,0.343-0.284,0.44-0.495
				c0.281,0.238,0.54,0.41,0.773,0.515c0.232,0.105,0.482,0.158,0.746,0.158c0.457,0,0.792-0.139,1.009-0.414
				c0.217-0.277,0.326-0.663,0.326-1.158V-5.617"/>
		</g>
	</g>
</g>
</svg>
