<?xml version="1.0" encoding="utf-8"?>
<!-- Generator: Adobe Illustrator 15.1.0, SVG Export Plug-In . SVG Version: 6.00 Build 0)  -->
<!DOCTYPE svg PUBLIC "-//W3C//DTD SVG 1.1//EN" "http://www.w3.org/Graphics/SVG/1.1/DTD/svg11.dtd">
<svg version="1.1" id="Layer_1" xmlns="http://www.w3.org/2000/svg" xmlns:xlink="http://www.w3.org/1999/xlink" x="0px" y="0px"
	 width="178.741px" height="53.885px" viewBox="0 0 178.741 53.885" enable-background="new 0 0 178.741 53.885"
	 xml:space="preserve">
<g>
	<polygon fill="#0058A0" points="64.907,53.11 73.803,0.907 88.032,0.907 79.13,53.11 	"/>
	<path fill="#0058A0" d="M130.737,2.192C127.917,1.135,123.5,0,117.984,0c-14.06,0-23.964,7.08-24.048,17.228
		c-0.079,7.501,7.07,11.686,12.468,14.183c5.538,2.559,7.4,4.19,7.374,6.476c-0.035,3.499-4.423,5.098-8.513,5.098
		c-5.695,0-8.721-0.791-13.394-2.74l-1.833-0.83L88.041,51.1c3.324,1.457,9.469,2.72,15.85,2.785
		c14.957,0,24.667-6.999,24.777-17.835c0.054-5.938-3.737-10.458-11.946-14.184c-4.974-2.415-8.02-4.026-7.987-6.472
		c0-2.17,2.578-4.49,8.148-4.49c4.653-0.072,8.023,0.942,10.649,2l1.275,0.603L130.737,2.192"/>
	<path fill="#0058A0" d="M167.224,0.957h-10.995c-3.406,0-5.955,0.93-7.451,4.329l-21.132,47.841h14.941
		c0,0,2.443-6.433,2.996-7.845c1.633,0,16.147,0.022,18.223,0.022c0.426,1.827,1.731,7.822,1.731,7.822h13.203L167.224,0.957
		 M149.678,34.604c1.177-3.008,5.669-14.593,5.669-14.593c-0.084,0.139,1.168-3.022,1.887-4.982l0.962,4.501
		c0,0,2.725,12.461,3.294,15.074H149.678z"/>
	<path fill="#0058A0" d="M52.973,0.945L39.042,36.544l-1.484-7.234c-2.593-8.34-10.673-17.375-19.707-21.898l12.738,45.654
		l15.055-0.018L68.045,0.945H52.973"/>
	<path fill="#FAA61A" d="M26.119,0.913H3.174L2.993,1.999C20.843,6.32,32.655,16.763,37.558,29.31L32.568,5.32
		C31.707,2.015,29.209,1.028,26.119,0.913"/>
</g>
</svg>
